<svg viewBox="0 0 24 24" fill="none" stroke="currentColor" stroke-width="1.9" stroke-linecap="round" stroke-linejoin="round" xmlns="http://www.w3.org/2000/svg">
  <path d="M12 8.5a3.5 3.5 0 1 0 0 7 3.5 3.5 0 0 0 0-7Z"/><path d="M19 13.5v-3l-2.1-.5a6.8 6.8 0 0 0-.8-1.9l1.1-1.8-2.1-2.1-1.8 1.1a6.8 6.8 0 0 0-1.9-.8L11 2.5H8l-.5 2.1a6.8 6.8 0 0 0-1.9.8L3.8 4.3 1.7 6.4l1.1 1.8a6.8 6.8 0 0 0-.8 1.9L0 10.5v3l2.1.5a6.8 6.8 0 0 0 .8 1.9l-1.1 1.8 2.1 2.1 1.8-1.1a6.8 6.8 0 0 0 1.9.8L8 21.5h3l.5-2.1a6.8 6.8 0 0 0 1.9-.8l1.8 1.1 2.1-2.1-1.1-1.8a6.8 6.8 0 0 0 .8-1.9l2-.4Z" transform="translate(2.5)"/>
</svg>
